<svg width="239" height="16" viewBox="0 0 239 16" fill="none" xmlns="http://www.w3.org/2000/svg">
<path d="M101.63 3.1L98.45 4.15L98.735 5.155L100.895 4.48V13H102.065V3.1H101.63ZM111.184 6.28C111.184 4.375 109.669 2.935 107.824 2.935C105.964 2.935 104.434 4.375 104.434 6.265C104.434 8.08 105.934 9.505 107.659 9.505C107.974 9.505 108.259 9.46 108.499 9.37L105.979 13H107.359L109.819 9.43C110.194 8.89 110.449 8.5 110.599 8.245C110.764 7.99 110.899 7.705 111.004 7.375C111.124 7.03 111.184 6.67 111.184 6.28ZM110.029 6.25C110.029 7.51 109.084 8.515 107.824 8.515C106.564 8.515 105.589 7.51 105.589 6.25C105.589 4.975 106.564 4 107.824 4C109.084 4 110.029 4.975 110.029 6.25ZM116.869 8.05C116.809 10.885 119.209 13.21 122.014 13.165C123.769 13.165 125.299 12.34 126.124 11.035L125.254 10.345C124.489 11.44 123.394 12.085 122.029 12.085C119.794 12.085 118.084 10.345 118.084 8.05C118.084 5.755 119.794 4.015 122.029 4.015C123.394 4.015 124.489 4.66 125.254 5.755L126.124 5.065C125.284 3.76 123.769 2.935 122.014 2.935C119.209 2.89 116.809 5.215 116.869 8.05ZM128.057 10.09C128.057 11.935 129.377 13.165 131.087 13.165C132.782 13.165 134.102 11.935 134.102 10.09V5.695H132.947V10.165C132.947 11.32 132.152 12.1 131.087 12.1C130.007 12.1 129.197 11.35 129.197 10.165V5.695H128.057V10.09ZM135.851 11.74C136.496 12.58 137.486 13.165 138.701 13.165C139.421 13.165 140.021 12.985 140.516 12.61C141.011 12.235 141.266 11.695 141.266 11.02C141.266 10.015 140.696 9.445 139.331 8.86L138.656 8.575C137.771 8.2 137.471 7.975 137.471 7.51C137.471 6.925 137.966 6.595 138.686 6.595C139.361 6.595 139.991 6.91 140.486 7.405L141.191 6.685C140.591 5.965 139.766 5.53 138.746 5.53C137.351 5.53 136.286 6.295 136.286 7.57C136.286 8.545 136.886 9.1 138.101 9.595L138.806 9.895C139.706 10.255 140.081 10.48 140.081 11.065C140.081 11.71 139.481 12.1 138.686 12.1C137.861 12.1 137.291 11.695 136.586 10.975L135.851 11.74ZM147.342 12.025C146.967 12.085 146.652 12.115 146.367 12.115C145.362 12.115 144.822 11.755 144.822 10.72V6.73H147.102V5.695H144.822V3.7H143.667V5.695H142.437V6.73H143.667V10.795C143.667 12.4 144.612 13.165 146.127 13.165C146.472 13.165 146.877 13.105 147.342 13V12.025ZM148.394 9.34C148.364 11.395 150.119 13.195 152.204 13.15C154.289 13.195 156.089 11.395 156.044 9.34C156.089 7.255 154.304 5.5 152.219 5.53C150.134 5.485 148.349 7.255 148.394 9.34ZM154.859 9.355C154.859 10.885 153.689 12.085 152.204 12.085C150.719 12.085 149.579 10.885 149.579 9.355C149.579 7.78 150.719 6.595 152.219 6.595C153.704 6.595 154.859 7.78 154.859 9.355ZM168.739 8.41C168.739 6.67 167.764 5.53 166.084 5.53C165.004 5.53 164.119 6.025 163.579 6.79C163.159 5.995 162.394 5.53 161.329 5.53C160.429 5.53 159.679 5.86 159.154 6.46V5.695H158.074V13H159.229V8.56C159.229 7.405 159.994 6.595 161.089 6.595C162.154 6.595 162.829 7.375 162.829 8.56V13H163.984V8.455C163.984 7.42 164.764 6.595 165.859 6.595C166.939 6.595 167.584 7.375 167.584 8.56V13H168.739V8.41ZM177.634 9.7C177.694 9.4 177.724 9.115 177.724 8.83C177.724 6.895 176.284 5.53 174.394 5.53C172.309 5.53 170.659 7.24 170.659 9.355C170.659 11.5 172.354 13.165 174.529 13.165C175.684 13.165 176.689 12.685 177.454 11.89L176.779 11.11C176.119 11.77 175.369 12.1 174.544 12.1C173.104 12.1 171.994 11.14 171.859 9.7H177.634ZM171.904 8.68C172.159 7.42 173.149 6.58 174.364 6.58C175.579 6.58 176.524 7.375 176.539 8.68H171.904ZM183.639 5.695C183.444 5.65 183.264 5.635 183.099 5.635C182.214 5.635 181.359 6.025 180.834 6.73V5.695H179.754V13H180.909V8.86C180.909 7.51 181.974 6.715 183.204 6.715H183.639V5.695ZM197.207 13L194.042 8.71C195.347 8.335 196.127 7.3 196.127 5.965C196.127 4.3 194.882 3.1 192.962 3.1H189.482V13H190.652V8.845H192.767L195.842 13H197.207ZM190.652 4.15H192.917C194.177 4.15 194.912 4.9 194.912 5.98C194.912 7.075 194.192 7.795 192.917 7.795H190.652V4.15ZM204.954 9.7C205.014 9.4 205.044 9.115 205.044 8.83C205.044 6.895 203.604 5.53 201.714 5.53C199.629 5.53 197.979 7.24 197.979 9.355C197.979 11.5 199.674 13.165 201.849 13.165C203.004 13.165 204.009 12.685 204.774 11.89L204.099 11.11C203.439 11.77 202.689 12.1 201.864 12.1C200.424 12.1 199.314 11.14 199.179 9.7H204.954ZM199.224 8.68C199.479 7.42 200.469 6.58 201.684 6.58C202.899 6.58 203.844 7.375 203.859 8.68H199.224ZM211.97 5.695L209.555 11.2L207.125 5.695H205.895L209.345 13.165H209.765L213.2 5.695H211.97ZM214.866 13H216.021V5.695H214.866V13ZM214.581 2.905C214.581 3.385 214.971 3.745 215.451 3.745C215.931 3.745 216.306 3.385 216.306 2.905C216.306 2.44 215.916 2.065 215.451 2.065C214.971 2.065 214.581 2.44 214.581 2.905ZM225.007 9.7C225.067 9.4 225.097 9.115 225.097 8.83C225.097 6.895 223.657 5.53 221.767 5.53C219.682 5.53 218.032 7.24 218.032 9.355C218.032 11.5 219.727 13.165 221.902 13.165C223.057 13.165 224.062 12.685 224.827 11.89L224.152 11.11C223.492 11.77 222.742 12.1 221.917 12.1C220.477 12.1 219.367 11.14 219.232 9.7H225.007ZM219.277 8.68C219.532 7.42 220.522 6.58 221.737 6.58C222.952 6.58 223.897 7.375 223.912 8.68H219.277ZM236.689 5.695L234.619 11.065L232.159 5.53H231.724L229.294 11.11L227.179 5.695H225.949L229.054 13.165H229.459L231.934 7.645L234.424 13.165H234.844L237.919 5.695H236.689Z" fill="#3D3D3D"/>
<path d="M11.1991 8.95006C11.0372 9.10694 10.9628 9.33381 10.9997 9.55631L11.5553 12.6313C11.6022 12.8919 11.4922 13.1557 11.2741 13.3063C11.0603 13.4626 10.7759 13.4813 10.5428 13.3563L7.77468 11.9126C7.67843 11.8613 7.57155 11.8338 7.46218 11.8307H7.2928C7.23405 11.8394 7.17655 11.8582 7.12405 11.8869L4.3553 13.3376C4.21843 13.4063 4.06343 13.4307 3.91155 13.4063C3.54155 13.3363 3.29468 12.9838 3.3553 12.6119L3.91155 9.53694C3.94843 9.31256 3.87405 9.08443 3.71218 8.92506L1.4553 6.73756C1.26655 6.55444 1.20093 6.27944 1.28718 6.03131C1.37093 5.78381 1.58468 5.60319 1.8428 5.56256L4.94905 5.11194C5.1853 5.08756 5.3928 4.94381 5.49905 4.73131L6.8678 1.92506C6.9003 1.86256 6.94218 1.80506 6.9928 1.75631L7.04905 1.71256C7.07843 1.68006 7.11218 1.65319 7.14968 1.63131L7.2178 1.60631L7.32405 1.56256H7.58718C7.82218 1.58694 8.02905 1.72756 8.13718 1.93756L9.52405 4.73131C9.62405 4.93569 9.81843 5.07756 10.0428 5.11194L13.1491 5.56256C13.4116 5.60006 13.6309 5.78131 13.7178 6.03131C13.7997 6.28194 13.7291 6.55694 13.5366 6.73756L11.1991 8.95006Z" fill="#FFAC0C"/>
<path d="M29.1991 8.95006C29.0372 9.10694 28.9628 9.33381 28.9997 9.55631L29.5553 12.6313C29.6022 12.8919 29.4922 13.1557 29.2741 13.3063C29.0603 13.4626 28.7759 13.4813 28.5428 13.3563L25.7747 11.9126C25.6784 11.8613 25.5716 11.8338 25.4622 11.8307H25.2928C25.2341 11.8394 25.1766 11.8582 25.1241 11.8869L22.3553 13.3376C22.2184 13.4063 22.0634 13.4307 21.9116 13.4063C21.5416 13.3363 21.2947 12.9838 21.3553 12.6119L21.9116 9.53694C21.9484 9.31256 21.8741 9.08443 21.7122 8.92506L19.4553 6.73756C19.2666 6.55444 19.2009 6.27944 19.2872 6.03131C19.3709 5.78381 19.5847 5.60319 19.8428 5.56256L22.9491 5.11194C23.1853 5.08756 23.3928 4.94381 23.4991 4.73131L24.8678 1.92506C24.9003 1.86256 24.9422 1.80506 24.9928 1.75631L25.0491 1.71256C25.0784 1.68006 25.1122 1.65319 25.1497 1.63131L25.2178 1.60631L25.3241 1.56256H25.5872C25.8222 1.58694 26.0291 1.72756 26.1372 1.93756L27.5241 4.73131C27.6241 4.93569 27.8184 5.07756 28.0428 5.11194L31.1491 5.56256C31.4116 5.60006 31.6309 5.78131 31.7178 6.03131C31.7997 6.28194 31.7291 6.55694 31.5366 6.73756L29.1991 8.95006Z" fill="#FFAC0C"/>
<path d="M47.1991 8.95006C47.0372 9.10694 46.9628 9.33381 46.9997 9.55631L47.5553 12.6313C47.6022 12.8919 47.4922 13.1557 47.2741 13.3063C47.0603 13.4626 46.7759 13.4813 46.5428 13.3563L43.7747 11.9126C43.6784 11.8613 43.5716 11.8338 43.4622 11.8307H43.2928C43.2341 11.8394 43.1766 11.8582 43.1241 11.8869L40.3553 13.3376C40.2184 13.4063 40.0634 13.4307 39.9116 13.4063C39.5416 13.3363 39.2947 12.9838 39.3553 12.6119L39.9116 9.53694C39.9484 9.31256 39.8741 9.08443 39.7122 8.92506L37.4553 6.73756C37.2666 6.55444 37.2009 6.27944 37.2872 6.03131C37.3709 5.78381 37.5847 5.60319 37.8428 5.56256L40.9491 5.11194C41.1853 5.08756 41.3928 4.94381 41.4991 4.73131L42.8678 1.92506C42.9003 1.86256 42.9422 1.80506 42.9928 1.75631L43.0491 1.71256C43.0784 1.68006 43.1122 1.65319 43.1497 1.63131L43.2178 1.60631L43.3241 1.56256H43.5872C43.8222 1.58694 44.0291 1.72756 44.1372 1.93756L45.5241 4.73131C45.6241 4.93569 45.8184 5.07756 46.0428 5.11194L49.1491 5.56256C49.4116 5.60006 49.6309 5.78131 49.7178 6.03131C49.7997 6.28194 49.7291 6.55694 49.5366 6.73756L47.1991 8.95006Z" fill="#FFAC0C"/>
<path d="M65.1991 8.95006C65.0372 9.10694 64.9628 9.33381 64.9997 9.55631L65.5553 12.6313C65.6022 12.8919 65.4922 13.1557 65.2741 13.3063C65.0603 13.4626 64.7759 13.4813 64.5428 13.3563L61.7747 11.9126C61.6784 11.8613 61.5716 11.8338 61.4622 11.8307H61.2928C61.2341 11.8394 61.1766 11.8582 61.1241 11.8869L58.3553 13.3376C58.2184 13.4063 58.0634 13.4307 57.9116 13.4063C57.5416 13.3363 57.2947 12.9838 57.3553 12.6119L57.9116 9.53694C57.9484 9.31256 57.8741 9.08443 57.7122 8.92506L55.4553 6.73756C55.2666 6.55444 55.2009 6.27944 55.2872 6.03131C55.3709 5.78381 55.5847 5.60319 55.8428 5.56256L58.9491 5.11194C59.1853 5.08756 59.3928 4.94381 59.4991 4.73131L60.8678 1.92506C60.9003 1.86256 60.9422 1.80506 60.9928 1.75631L61.0491 1.71256C61.0784 1.68006 61.1122 1.65319 61.1497 1.63131L61.2178 1.60631L61.3241 1.56256H61.5872C61.8222 1.58694 62.0291 1.72756 62.1372 1.93756L63.5241 4.73131C63.6241 4.93569 63.8184 5.07756 64.0428 5.11194L67.1491 5.56256C67.4116 5.60006 67.6309 5.78131 67.7178 6.03131C67.7997 6.28194 67.7291 6.55694 67.5366 6.73756L65.1991 8.95006Z" fill="#FFAC0C"/>
<path d="M83.1991 8.95006C83.0372 9.10694 82.9628 9.33381 82.9997 9.55631L83.5553 12.6313C83.6022 12.8919 83.4922 13.1557 83.2741 13.3063C83.0603 13.4626 82.7759 13.4813 82.5428 13.3563L79.7747 11.9126C79.6784 11.8613 79.5716 11.8338 79.4622 11.8307H79.2928C79.2341 11.8394 79.1766 11.8582 79.1241 11.8869L76.3553 13.3376C76.2184 13.4063 76.0634 13.4307 75.9116 13.4063C75.5416 13.3363 75.2947 12.9838 75.3553 12.6119L75.9116 9.53694C75.9484 9.31256 75.8741 9.08443 75.7122 8.92506L73.4553 6.73756C73.2666 6.55444 73.2009 6.27944 73.2872 6.03131C73.3709 5.78381 73.5847 5.60319 73.8428 5.56256L76.9491 5.11194C77.1853 5.08756 77.3928 4.94381 77.4991 4.73131L78.8678 1.92506C78.9003 1.86256 78.9422 1.80506 78.9928 1.75631L79.0491 1.71256C79.0784 1.68006 79.1122 1.65319 79.1497 1.63131L79.2178 1.60631L79.3241 1.56256H79.5872C79.8222 1.58694 80.0291 1.72756 80.1372 1.93756L81.5241 4.73131C81.6241 4.93569 81.8184 5.07756 82.0428 5.11194L85.1491 5.56256C85.4116 5.60006 85.6309 5.78131 85.7178 6.03131C85.7997 6.28194 85.7291 6.55694 85.5366 6.73756L83.1991 8.95006Z" fill="#C4C4C4"/>
</svg>
